<?xml version="1.0" encoding="UTF-8"?>
<!DOCTYPE svg PUBLIC "-//W3C//DTD SVG 1.1//EN" "http://www.w3.org/Graphics/SVG/1.1/DTD/svg11.dtd">
<svg version="1.1" xmlns="http://www.w3.org/2000/svg" xmlns:xlink="http://www.w3.org/1999/xlink" x="0" y="0" width="616" height="618" viewBox="0, 0, 616, 618">
  <defs>
    <clipPath id="Clip_1">
      <path d="M0.06,0.609 L615.38,0.609 L615.38,617.94 L0.06,617.94 z"/>
    </clipPath>
  </defs>
  <g id="Layer_1">
    <g clip-path="url(#Clip_1)">
      <path d="M258.749,40.513 C323.712,42.149 382.642,60.643 432.27,103.802 C466.82,133.85 489.878,171.921 505.427,214.668 C520.795,256.919 527.034,300.723 525.918,345.521 C525.381,367.049 520.732,387.762 508.599,406.154 C494.11,428.116 472.612,439.018 447.765,444.478 C435.428,447.189 423.041,447.374 410.604,444.636 C401.231,442.572 393.43,437.541 385.89,432.091 C382.004,429.283 379.181,428.945 375.081,432.016 C367.494,437.699 358.998,442.013 350.201,445.602 C347.585,446.669 346.802,447.755 347.688,450.755 C362.884,502.171 370.909,554.891 376.126,608.121 C376.366,610.571 375.219,612.854 376.044,615.379 C376.485,616.729 374.789,617.18 373.396,617.558 C369.571,618.595 365.828,617.48 362.053,617.481 C295.061,617.5 228.07,617.495 161.079,617.495 C160.412,617.495 159.745,617.469 159.079,617.5 C147.861,618.023 146.573,616.895 147.2,605.738 C150.169,552.879 158.347,500.92 174.536,450.391 C175.446,447.551 175.181,446.423 172.333,445.217 C164.37,441.846 156.727,437.792 149.602,432.852 C147.894,431.668 146.612,431.371 144.787,432.788 C119.72,452.252 93.074,448.908 66.654,436.875 C38.836,424.207 22.553,400.633 11.437,373.24 C0.834,347.113 -1.741,319.723 1.041,291.835 C7.59,226.181 33.664,168.863 78.247,120.752 C120.321,75.349 173.092,49.222 234.799,41.772 C235.955,41.633 237.127,41.625 238.291,41.564 C245.103,41.213 251.916,40.864 258.749,40.513" fill="#6E4100"/>
      <path d="M538.011,111.414 C534.859,111.215 532.141,109.847 530.816,106.537 C529.524,103.312 529.86,100.038 532.526,97.807 C546.567,86.057 560.668,74.375 574.931,62.896 C578.459,60.057 583.477,61.262 586.009,64.757 C588.349,67.985 587.939,72.791 584.595,75.582 C571.048,86.887 557.39,98.059 543.754,109.257 C542.186,110.545 540.382,111.384 538.011,111.414" fill="#FF7164"/>
      <path d="M516.554,8.442 C516.607,10.504 515.894,12.315 514.87,14.082 C508.449,25.152 502.723,36.583 497.261,48.15 C494.555,53.884 490.478,55.879 485.882,53.824 C481.051,51.666 479.942,47.181 482.841,41.139 C488.66,29.01 494.554,16.915 501.35,5.292 C503.496,1.622 506.691,-0.283 510.979,1.018 C514.493,2.085 516.439,4.657 516.554,8.442" fill="#FF7164"/>
      <path d="M615.195,158.252 C616.118,162.606 613.502,164.726 609.29,166.016 C597.384,169.661 585.294,172.731 573.816,177.718 C569.741,179.489 565.525,177.546 563.795,173.741 C561.852,169.469 563.393,165.051 567.955,162.901 C577.463,158.42 587.618,155.757 597.63,152.702 C600.173,151.926 602.724,151.173 605.279,150.437 C611.708,148.588 615.195,151.177 615.195,158.252" fill="#FF7164"/>
    </g>
    <path d="M96.508,311.602 C91.088,258.537 103.902,210.54 137.292,168.689 C151.95,150.317 170.915,137.109 192.37,127.501 C194.588,126.508 196.044,126.309 197.961,128.339 C233.995,166.49 279.012,189.071 328.699,203.504 C330.135,203.921 331.568,204.389 333.035,204.649 C337.927,205.516 341.266,207.694 344.157,212.304 C350.01,221.638 359.93,223.856 370.305,224.046 C378.647,224.198 386.92,223.234 395.154,222 C401.305,221.078 401.343,221.01 402.062,227.281 C402.972,235.224 403.998,243.152 406.245,250.842 C409.369,261.531 414.642,270.463 426.271,273.724 C428.492,274.347 428.305,275.954 428.397,277.633 C429.018,288.965 428.718,300.257 427.085,311.5 C424.791,311.572 424.14,309.576 423.099,308.196 C413.894,295.993 401.295,291.806 386.614,293.02 C370.876,294.322 352.752,315.904 358.592,333.892 C361.532,342.952 365.242,351.419 373.11,357.131 C385.099,365.834 399.118,365.569 411.17,356.906 C414.448,354.55 414.448,354.55 416.373,355.621 C403.552,390.05 380.541,415.122 347.186,430.525 C323.721,441.361 298.76,445.775 273.123,446.838 C239.663,448.224 206.96,444.583 176.176,430.454 C144.698,416.007 122.376,392.551 109.222,360.452 C110.48,357.361 112.582,359.359 114.039,359.926 C120.67,362.507 127.466,363.659 134.57,363.237 C137.258,363.078 139.871,362.659 142.389,361.763 C159.366,355.724 169.274,334.717 162.716,317.934 C158.342,306.74 151.808,297.263 139.259,293.912 C125.795,290.315 111.649,295.794 102.952,307.875 C101.787,309.493 100.835,311.276 99.405,312.691 C97.697,314.382 96.883,313.537 96.508,311.602" fill="#FEF8EA"/>
    <path d="M121.322,102.253 C154.792,78.862 190.91,61.712 232.004,57.483 C296.138,50.884 354.955,65.893 407.582,103.307 C439.817,126.223 462.44,157.273 479.729,192.462 C479.925,192.861 479.907,193.366 480.114,194.519 C465.306,187.266 449.91,185.993 434.204,186.647 C426.341,186.975 426.324,186.949 424.631,179.141 C421.821,166.18 417.466,153.876 409.523,143.06 C398.344,127.839 382.588,126.374 368.898,139.282 C364.764,143.18 360.816,147.275 357.727,152.03 C355.749,155.073 354.523,154.29 352.586,152.118 C337.676,135.405 324.533,117.442 313.842,97.732 C312.052,94.431 309.412,92.882 305.685,93.336 C302.016,93.782 300.199,96.25 299.386,99.555 C298.732,102.214 300.176,104.417 301.39,106.587 C313.318,127.901 327.547,147.548 344.439,165.198 C346.815,167.681 347.197,169.39 345.596,172.441 C343.128,177.145 341.388,182.25 340.437,187.498 C339.961,190.124 339.178,190.877 336.542,190.13 C287.36,176.193 242.632,154.482 207.395,116.213 C204.131,112.668 201.146,108.85 198.216,105.018 C195.537,101.517 192.165,100.128 188.172,101.913 C184.202,103.688 183.348,107.423 184.505,111.231 C185.204,113.532 184.795,114.439 182.76,115.404 C128.678,141.066 99.113,185.577 85.583,242.271 C82.729,254.231 80.376,266.332 80.216,278.71 C80.183,281.275 79.778,282.738 76.643,282.476 C61.614,281.22 51.545,290.903 49.54,307.601 C48.407,317.037 48.594,326.575 52.757,335.534 C58.541,347.986 70.814,355.143 84.795,353.699 C89.05,353.259 90.809,354.517 92.248,358.577 C100.559,382.031 113.49,402.579 132.072,419.317 C134.294,421.319 133.991,422.112 131.846,423.671 C126.019,427.904 119.603,430.291 112.404,430.565 C111.203,429.732 109.964,430.783 108.75,430.492 C92.434,427.87 79.868,418.782 69.555,406.609 C50.436,384.044 41.865,356.975 36.967,328.328 C31.258,294.926 34.585,262.495 45.312,230.483 C58.833,190.135 78.563,153.236 105.082,119.98 C108.491,115.705 111.656,111.159 116.066,107.771 C117.614,105.742 120.481,104.962 121.322,102.253" fill="#DCAE53"/>
    <path d="M187.401,463.694 C187.466,483.595 195.415,495.291 212.381,500.446 C231.715,506.321 249.441,500.495 259.867,484.833 C260.593,483.743 261.294,482.637 262.2,481.24 C265.357,484.689 268.159,488.096 271.314,491.136 C284.207,503.56 301.532,505.887 317.334,497.467 C328.138,491.71 333.208,482.316 334.43,470.486 C335.651,469.061 333.166,466.38 336.108,465.538 C341.776,484.162 345.587,503.22 349.195,522.314 C354.6,550.924 358.147,579.794 361.088,608.751 C361.486,612.662 360.575,613.597 356.626,613.588 C293.359,613.457 230.093,613.443 166.827,613.61 C162.382,613.622 161.706,612.64 161.961,608.297 C164.862,558.84 172.089,510.136 186.465,462.621 C187.356,462.473 187.848,462.674 187.401,463.694" fill="#FEFEFE"/>
    <path d="M492.598,223.496 C498.962,241.004 503.266,258.573 505.944,276.502 C509.113,297.718 511.902,319.009 511.175,340.543 C510.512,360.176 507.567,379.288 496.93,396.405 C485.14,415.379 466.888,424.488 446.043,429.448 C436.431,431.736 426.702,432.242 416.837,430.6 C408.285,429.177 401.47,424.522 394.625,419.789 C391.681,417.753 394.592,416.653 395.588,415.671 C404.897,406.493 412.736,396.203 419.296,384.918 C424.494,375.978 428.851,366.634 432.162,356.847 C433.107,354.052 434.514,353.436 437.246,353.605 C459.456,354.974 472.965,342.716 474.362,320.22 C474.724,314.391 474.54,308.631 473.244,302.941 C470.122,289.236 461.934,282.629 447.796,282.454 C445.67,282.428 443.46,282.572 443.582,279.737 C443.698,277.059 441.498,273.777 445.449,271.868 C466.536,261.682 481.391,245.436 491.353,224.459 C491.468,224.216 491.821,224.085 492.598,223.496" fill="#DCAE53"/>
    <path d="M117.294,107.594 C83.22,146.204 58.651,190.159 43.951,239.483 C29.094,289.337 33.689,337.831 56.293,384.464 C65.687,403.843 79.814,419.088 100.462,427.165 C103.228,428.247 106.186,428.837 109.055,429.655 C106.029,432.412 102.511,430.581 99.203,430.71 C78.188,428.604 60.883,419.286 47.088,403.475 C28.898,382.626 19.261,358.009 16.312,330.746 C11.286,284.281 22.895,241.029 42.807,199.612 C58.15,167.698 78.15,139.074 104.815,115.448 C108.411,112.262 112.326,109.436 116.092,106.444 C117.139,106.152 117.466,106.612 117.294,107.594" fill="#FEFEFE"/>
    <path d="M432.726,259.555 C427.886,259.606 425.151,256.617 423.165,252.729 C419.148,244.862 418.543,236.163 417.214,227.645 C416.37,222.232 415.799,216.76 414.635,211.416 C413.219,204.916 409.587,203.952 403.106,205.357 C390.291,208.135 377.213,210.093 364.063,208.228 C356.868,207.208 353.188,201.591 354.524,194.355 C357.882,176.159 367.439,161.349 380.785,148.971 C386.609,143.569 391.37,144.343 396.409,150.961 C405.968,163.516 410.962,178.037 411.05,193.604 C411.099,202.432 416.467,205.477 424.086,203.518 C438.047,199.927 452.117,200.998 465.948,204.947 C468.678,205.726 471.196,207.027 473.553,208.631 C477.31,211.188 478.676,214.535 477.221,218.968 C476.275,221.852 474.781,224.443 473.117,226.924 C464.869,239.228 455.202,250.077 441.74,256.929 C438.921,258.364 436.011,259.609 432.726,259.555" fill="#FF7164"/>
    <path d="M416.373,355.621 C415.513,354.719 414.929,355.422 414.315,355.972 C396.853,371.609 369.62,366.707 359.453,340.769 C351.206,319.729 363.046,296.147 384.614,292.055 C398.622,289.397 415.535,293.662 425.604,309.536 C426.041,310.226 426.589,310.846 427.085,311.499 C425.479,326.684 422.229,341.469 416.373,355.621" fill="#FFCEB4"/>
    <path d="M96.508,311.602 C98.681,314.249 99.108,311.248 99.633,310.395 C103.189,304.632 107.644,299.816 113.534,296.414 C131.227,286.194 150.294,291.844 160.548,310.071 C172.368,331.08 165.695,348.261 147.21,360.69 C136.535,367.867 124.602,365.153 113.197,360.994 C111.956,360.542 110.783,358.808 109.222,360.453 C102.249,344.88 98.533,328.461 96.508,311.602" fill="#FFCEB4"/>
    <path d="M226.734,487.507 C222.846,487.708 219.142,486.776 215.522,485.542 C204.659,481.839 198.963,468.736 203.462,458.148 C204.263,456.262 205.605,456.238 207.106,456.581 C221.057,459.76 235.223,461.28 249.482,461.978 C252.765,462.138 253.235,463.212 252.254,466.225 C247.788,479.935 238.799,487.545 226.734,487.507" fill="#FF7164"/>
    <path d="M269.119,462.384 C285.07,461.268 300.301,460.298 315.186,456.719 C317.277,456.216 318.034,457.015 318.632,459.006 C321.378,468.148 318.669,478.426 312.108,483.005 C303.78,488.816 293.132,488.743 285.041,482.944 C277.937,477.851 273.445,470.795 269.119,462.384" fill="#FF7164"/>
    <path d="M64.103,316.673 C64.13,312.3 64.308,308.819 65.282,305.426 C65.838,303.488 66.624,301.659 67.952,300.129 C70.893,296.742 74.847,296.869 78.574,297.778 C81.696,298.539 80.179,301.694 80.425,303.764 C81.662,314.159 82.638,324.595 85.232,334.768 C86.087,338.118 85.297,339.06 81.753,338.817 C71.65,338.124 66.082,333.008 64.491,322.27 C64.176,320.138 64.186,317.959 64.103,316.673" fill="#FEF8EA"/>
    <path d="M459.509,315.773 C459.313,319.5 459.291,322.981 458.287,326.379 C455.85,334.623 449.223,339.396 440.749,338.948 C438.725,338.841 437.71,338.249 438.242,335.947 C440.936,324.288 442.705,312.49 443.226,300.524 C443.317,298.435 444.386,297.748 446.329,297.458 C452.442,296.546 456.195,298.797 458.167,304.702 C459.399,308.393 459.355,312.221 459.509,315.773" fill="#FEF8EA"/>
    <path d="M99.203,430.71 C102.412,429.654 105.968,431.84 109.055,429.655 C110.317,429.422 111.51,429.441 112.403,430.566 C108.017,431.852 103.617,431.937 99.203,430.71" fill="#EBD1A1"/>
    <path d="M336.108,465.538 C334.454,466.816 336.055,469.198 334.43,470.486 C334.37,467.163 334.31,463.84 334.25,460.518 C334.587,460.175 334.882,460.208 335.135,460.617 C335.459,462.257 335.783,463.898 336.108,465.538" fill="#F9F7F6"/>
    <path d="M117.294,107.594 C116.893,107.211 116.493,106.828 116.092,106.444 C117.835,105.048 119.577,103.652 121.32,102.255 C121.676,105.313 118.769,105.914 117.294,107.594" fill="#EFE5D5"/>
    <path d="M335.135,460.617 L334.699,460.504 L334.25,460.518 C333.172,459.706 333.084,458.625 333.421,457.297 C334.941,457.974 335.195,459.21 335.135,460.617" fill="#A99274"/>
    <path d="M187.401,463.694 C187.089,463.336 186.777,462.979 186.465,462.621 C186.754,461.728 187.043,460.834 187.43,459.637 C188.518,461.291 188.09,462.497 187.401,463.694" fill="#DCD4CA"/>
    <path d="M260.275,335.373 C273.6,335.372 286.924,335.364 300.248,335.377 C305.049,335.382 306.932,337.09 306.201,341.74 C303.97,355.94 299.213,369.221 289.315,379.946 C273.684,396.882 246.951,395.184 231.316,376.573 C225.459,369.6 221.45,361.622 218.681,352.989 C217.542,349.438 217.02,345.837 214.26,342.731 C211.438,339.554 214.476,335.397 219.318,335.386 C232.97,335.353 246.623,335.374 260.275,335.373" fill="#6E4100"/>
    <path d="M351.277,277.916 C351.118,282.234 350.443,285.778 348.516,289.018 C343.493,297.461 333.105,299.011 325.921,292.367 C317.957,285.002 317.277,272.79 325.026,263.613 C327.823,260.3 328.734,257.355 327.836,253.373 C327.558,252.141 327.799,250.708 328.114,249.445 C328.525,247.796 329.864,247.018 331.513,247.108 C333.159,247.198 334.693,248.106 334.54,249.802 C334.073,254.976 336.858,256.559 341.242,258.65 C349.121,262.408 350.666,270.485 351.277,277.916" fill="#6E4100"/>
    <path d="M202.47,278.423 C202.482,283.064 201.524,287.378 198.507,291.013 C194.7,295.601 188.537,297.548 183.311,295.903 C177.033,293.927 171.65,287.045 171.11,280.293 C170.5,272.67 173.207,266.218 178.552,260.993 C180.426,259.16 181.458,257.758 180.577,255.079 C180.084,253.58 180.266,251.772 180.479,250.148 C180.755,248.048 182.146,246.911 184.317,247.165 C186.2,247.385 187.5,248.553 187.3,250.481 C186.863,254.703 188.588,256.631 192.522,258.611 C200.335,262.542 202.114,270.321 202.47,278.423" fill="#6E4100"/>
    <path d="M183.551,164.029 C187.537,164.053 191.022,165.432 193.906,168.139 C195.857,169.971 196.073,172.274 194.53,174.415 C193.038,176.485 190.832,176.417 188.701,175.48 C180.777,171.994 177.316,173.113 173.355,180.871 C172.033,183.461 170.34,184.902 167.507,183.847 C164.446,182.707 163.949,180.379 164.951,177.376 C167.42,169.983 175.754,163.927 183.551,164.029" fill="#6F4300"/>
    <path d="M253.185,277.023 C253.298,274.58 254.97,272.798 258.058,272.573 C261.436,272.326 265.257,277.249 265.413,281.818 C265.532,285.319 263.625,287.105 260.368,287.278 C257.188,287.447 253.19,281.931 253.185,277.023" fill="#704501"/>
    <path d="M250.391,532.138 C250.634,526.021 255.631,521.377 261.826,521.51 C268.102,521.645 272.836,526.897 272.485,533.336 C272.145,539.576 267.271,543.907 260.883,543.645 C254.745,543.394 250.144,538.348 250.391,532.138" fill="#FF7164"/>
    <path d="M272.528,584.684 C272.484,590.995 267.838,595.625 261.531,595.645 C255.093,595.665 250.22,590.696 250.391,584.283 C250.554,578.139 255.466,573.447 261.674,573.503 C267.763,573.558 272.572,578.512 272.528,584.684" fill="#FF7164"/>
    <path d="M295.238,345.676 C293.12,354.552 289.95,362.366 284.99,369.357 C275.02,383.406 256.634,385.619 243.487,374.444 C235.722,367.844 229.331,356.41 227.495,345.753 C249.96,345.443 272.406,345.138 295.238,345.676" fill="#FEFEFE"/>
  </g>
</svg>
