<?xml version="1.0" encoding="UTF-8"?>
<!DOCTYPE svg PUBLIC "-//W3C//DTD SVG 1.1//EN" "http://www.w3.org/Graphics/SVG/1.1/DTD/svg11.dtd">
<svg version="1.1" xmlns="http://www.w3.org/2000/svg" xmlns:xlink="http://www.w3.org/1999/xlink" x="0" y="0" width="580" height="422" viewBox="0, 0, 580, 422">
  <defs>
    <linearGradient id="Gradient_1" gradientUnits="userSpaceOnUse" x1="17.696" y1="241.95" x2="174.752" y2="415.047">
      <stop offset="0" stop-color="#EED3CB"/>
      <stop offset="0.957" stop-color="#DC9896"/>
      <stop offset="1" stop-color="#DC9896"/>
    </linearGradient>
    <linearGradient id="Gradient_2" gradientUnits="userSpaceOnUse" x1="48.991" y1="270.992" x2="320.449" y2="189.294">
      <stop offset="0" stop-color="#EED3CB"/>
      <stop offset="0.957" stop-color="#DC9896"/>
      <stop offset="1" stop-color="#DC9896"/>
    </linearGradient>
    <linearGradient id="Gradient_3" gradientUnits="userSpaceOnUse" x1="482.446" y1="330.201" x2="458.093" y2="346.816">
      <stop offset="0" stop-color="#B07D55"/>
      <stop offset="1" stop-color="#964E33"/>
    </linearGradient>
    <linearGradient id="Gradient_4" gradientUnits="userSpaceOnUse" x1="369.771" y1="98.633" x2="474.215" y2="311.137">
      <stop offset="0" stop-color="#B07D55"/>
      <stop offset="1" stop-color="#964E33"/>
    </linearGradient>
    <radialGradient id="Gradient_5" gradientUnits="userSpaceOnUse" cx="249.597" cy="272.974" r="157.398">
      <stop offset="0" stop-color="#D5745B"/>
      <stop offset="0.5" stop-color="#C4292B"/>
      <stop offset="1" stop-color="#AF2A2E"/>
    </radialGradient>
    <radialGradient id="Gradient_6" gradientUnits="userSpaceOnUse" cx="249.597" cy="272.974" r="157.398">
      <stop offset="0" stop-color="#F0CEBC"/>
      <stop offset="0.5" stop-color="#E8B5A1"/>
      <stop offset="1" stop-color="#DDB2A0"/>
    </radialGradient>
    <linearGradient id="Gradient_7" gradientUnits="userSpaceOnUse" x1="394.173" y1="269.261" x2="440.314" y2="301.572">
      <stop offset="0" stop-color="#B07D55"/>
      <stop offset="1" stop-color="#964E33"/>
    </linearGradient>
    <linearGradient id="Gradient_8" gradientUnits="userSpaceOnUse" x1="212.588" y1="284.759" x2="150.949" y2="314.288">
      <stop offset="0" stop-color="#EED3CB"/>
      <stop offset="0.957" stop-color="#DC9896"/>
      <stop offset="1" stop-color="#DC9896"/>
    </linearGradient>
  </defs>
  <g id="Layer_1">
    <path d="M100.557,356.396 C104.182,364.686 113.861,368.443 122.15,364.803 C130.439,361.162 134.213,351.49 130.557,343.201 C126.916,334.92 117.229,331.154 108.971,334.787 C100.674,338.436 96.908,348.107 100.557,356.396 z" fill="url(#Gradient_1)"/>
    <path d="M115.541,361.178 C117.041,361.178 118.596,360.889 120.119,360.217 C124.385,358.357 126.916,354.17 126.939,349.779 C126.916,348.248 126.627,346.678 125.979,345.217 C124.096,340.928 119.908,338.396 115.518,338.373 C113.971,338.396 112.439,338.693 110.979,339.357 C106.689,341.24 104.15,345.42 104.135,349.795 C104.15,351.35 104.447,352.85 105.096,354.342 L100.557,356.389 L105.143,354.396 C106.986,358.646 111.143,361.178 115.541,361.178 z M95.955,358.396 L95.971,358.389 C94.689,355.568 94.135,352.623 94.15,349.795 C94.135,341.561 98.947,333.732 106.893,330.24 C109.682,328.959 112.65,328.396 115.518,328.396 C123.744,328.396 131.58,333.17 135.143,341.201 C136.33,343.982 136.939,346.912 136.916,349.779 C136.939,357.998 132.15,365.842 124.111,369.396 C121.33,370.592 118.4,371.178 115.541,371.178 C107.314,371.178 99.463,366.412 95.955,358.396" fill="#6C4A2C"/>
    <path d="M158.747,405.671 C158.66,405.671 158.573,405.671 158.486,405.67 C153.604,405.646 150.557,404.498 148.799,402.404 C143.291,396.342 125.979,362.014 125.979,345.498 L125.939,343.99 L125.096,342.771 C116.486,330.178 112.353,318.584 112.283,299.912 C112.283,290.248 113.486,278.74 115.955,264.529 L116.814,259.56 L111.83,258.748 C62.362,250.904 58.346,203.053 58.135,182.896 C58.159,178.928 58.346,176.459 58.346,175.076 L58.346,167.74 L51.635,170.185 C49.955,170.818 48.237,171.115 46.416,171.115 C46.353,171.116 46.29,171.116 46.226,171.116 C39.609,171.116 31.347,166.686 24.971,159.435 C18.518,152.17 14.096,142.342 14.112,132.803 C14.26,120.162 21.112,107.123 44.284,97.857 C48.682,96.099 53.143,95.342 57.588,95.342 C57.628,95.342 57.667,95.341 57.707,95.341 C69.61,95.341 81.26,101.196 88.424,108.842 L91.478,112.068 L95.041,109.436 C108.08,99.725 124.025,91.99 141.994,87.428 C153.518,84.49 164.963,83.107 175.947,83.107 C181.549,83.107 187.033,83.482 192.354,84.193 L197.744,84.904 L198.01,79.459 C198.666,63.428 212.455,46.99 233.119,42.068 L231.963,37.209 L233.143,42.045 C237.041,41.1 240.736,40.662 244.174,40.662 C253.724,40.682 261.599,44.012 267.499,49.278 C266.058,62.036 269.729,75.356 279.124,85.02 C276.948,95.969 269.836,105.726 256.158,110.881 L250.322,113.037 L253.682,118.279 C256.322,122.264 272.15,142.256 272.174,168.303 C272.127,183.436 266.971,200.584 249.932,218.545 L247.018,221.623 L249.572,225.021 C249.883,225.24 252.124,228.6 254.989,233.277 C250.975,232.13 246.761,231.437 242.377,231.357 C242.316,231.357 242.258,231.357 242.197,231.357 C228.273,231.357 213.444,238.591 200.064,256.373 C194.416,263.717 191.893,272.053 191.893,280.42 C192.314,309.357 219.205,338.678 245.189,362.099 C252.302,368.432 259.399,374.273 265.967,379.424 C261,382.405 254.824,383.8 248.111,383.951 C242.768,383.951 237.268,382.975 232.197,381.084 C230.955,380.396 231.635,381.357 230.424,377.881 C229.533,374.756 227.924,369.474 222.877,363.982 L220.33,361.193 L216.963,362.85 C213.291,364.654 211.283,365.764 210.088,366.475 C209.908,366.584 209.76,366.67 209.619,366.748 C208.377,366.842 205.815,367.1 201.244,367.967 L196.596,368.826 L197.182,373.498 C198.33,382.154 200.385,388.506 200.275,391.373 C199.814,393.678 200.893,393.115 196.471,395.209 C186.378,398.829 169.81,405.671 158.747,405.671 z M134.674,222.646 C139.057,235.56 151.994,241.076 165.814,241.076 C165.971,241.076 166.127,241.076 166.283,241.076 C173.213,241.076 180.627,239.865 188.166,237.6 C207.728,231.545 223.689,220.053 224.103,203.318 C224.135,200.74 223.666,198.17 222.853,195.631 C217.737,181.156 201.584,171.322 183.568,170.403 C181.684,169.548 179.446,169.089 177.054,169.089 C175.138,169.089 173.122,169.384 171.111,170.006 C168.908,170.69 166.944,171.695 165.303,172.908 C145.642,179.555 133.343,197.021 133.197,213.521 C133.197,216.576 133.658,219.67 134.658,222.654 L134.674,222.646 z M117.675,182.654 C116.282,182.683 114.872,182.981 113.518,183.576 C107.978,186.006 105.463,192.451 107.893,197.975 C109.693,202.073 113.698,204.511 117.902,204.511 C119.372,204.512 120.866,204.213 122.299,203.584 C127.822,201.154 130.33,194.709 127.892,189.178 C127.17,187.536 126.094,186.161 124.793,185.103 L124.252,172.115 L117.675,182.654 z M232.607,158.472 C231.138,158.472 229.645,158.769 228.213,159.396 C222.697,161.834 220.189,168.279 222.611,173.803 C224.411,177.895 228.416,180.332 232.62,180.332 C234.09,180.332 235.584,180.034 237.018,179.404 C242.533,176.975 245.049,170.537 242.611,165.006 C242.031,163.681 241.221,162.531 240.247,161.58 L239.971,155.006 L237.183,159.475 C235.759,158.821 234.197,158.472 232.607,158.472 z M139.393,221.014 L139.404,221.01 L139.393,221.014 z" fill="url(#Gradient_2)"/>
    <path d="M58.346,174.904 L58.346,175.076 C58.346,176.459 58.159,178.928 58.135,182.896 C58.346,203.053 62.362,250.904 111.83,258.748 L116.814,259.56 L115.955,264.529 C113.486,278.74 112.283,290.248 112.283,299.912 C112.353,318.584 116.486,330.178 125.096,342.771 L125.939,343.99 L125.979,345.498 C125.979,362.014 143.291,396.342 148.799,402.404 C150.557,404.498 153.604,405.646 158.486,405.67 C169.549,405.779 186.299,398.857 196.471,395.209 C200.893,393.115 199.814,393.678 200.275,391.373 C200.385,388.506 198.33,382.154 197.182,373.498 L196.596,368.826 L201.244,367.967 C205.815,367.1 208.377,366.842 209.619,366.748 C209.76,366.67 209.908,366.584 210.088,366.475 C211.283,365.764 213.291,364.654 216.963,362.85 L220.33,361.193 L222.877,363.982 C227.924,369.474 229.533,374.756 230.424,377.881 C231.635,381.357 230.955,380.396 232.197,381.084 C237.268,382.975 242.768,383.951 248.111,383.951 C263.682,383.6 276.361,376.56 277.768,358.553 C277.932,356.021 278.002,353.592 278.002,351.217 C278.018,332.912 273.283,318.475 269.728,300.35 L268.479,300.475 L268.627,294.818 C268.666,292.678 268.814,289.686 268.814,285.889 C268.814,280.943 268.549,274.693 267.494,267.717 L266.924,263.967 L269.252,262.912 C269.33,255.436 250.517,225.685 249.572,225.021 L247.018,221.623 L249.932,218.545 C266.971,200.584 272.127,183.436 272.174,168.303 C272.15,142.256 256.322,122.264 253.682,118.279 L250.322,113.037 L256.158,110.881 C272.846,104.592 279.76,91.451 279.861,77.654 C279.736,58.935 266.557,40.709 244.174,40.662 C240.736,40.662 237.041,41.1 233.143,42.045 L231.963,37.209 L233.119,42.068 C212.455,46.99 198.666,63.428 198.01,79.459 L197.744,84.904 L192.354,84.193 C187.033,83.482 181.549,83.107 175.947,83.107 C164.963,83.107 153.518,84.49 141.994,87.428 C124.025,91.99 108.08,99.725 95.041,109.436 L91.478,112.068 L88.424,108.842 C81.236,101.17 69.534,95.303 57.588,95.342 C53.143,95.342 48.682,96.099 44.284,97.857 C21.112,107.123 14.26,120.162 14.112,132.803 C14.096,142.342 18.518,152.17 24.971,159.435 C31.409,166.756 39.768,171.201 46.416,171.115 C48.237,171.115 49.955,170.818 51.635,170.185 L58.346,167.74 L58.346,174.904 M141.174,408.873 C133.893,399.857 117.65,368.795 116.064,347.295 C107.002,333.857 102.229,319.553 102.299,299.912 C102.299,290.607 103.299,280.084 105.299,267.662 C52.549,255.842 47.955,202.834 48.159,182.896 C48.159,182.256 48.159,181.639 48.159,181.053 C47.58,181.092 46.995,181.115 46.416,181.115 C25.143,180.545 4.541,157.764 4.127,132.803 C3.979,115.842 14.893,98.428 40.612,88.553 C46.221,86.311 51.994,85.35 57.588,85.35 C71.08,85.389 83.564,90.951 92.533,98.928 C105.947,89.607 121.877,82.232 139.533,77.74 C151.861,74.6 164.127,73.107 175.947,73.107 C180.229,73.107 184.463,73.311 188.627,73.693 C192.033,54.514 208.377,37.779 230.752,32.35 L230.752,32.342 C235.432,31.193 239.916,30.67 244.174,30.67 C272.721,30.685 289.838,54.436 289.877,77.654 C289.994,93.201 282.096,109.201 265.432,117.717 C271.236,126.389 282.182,145.1 282.174,168.303 C282.205,184.935 276.44,203.928 259.877,222.521 C265.455,230.889 278.627,251.201 279.228,263.271 C279.314,264.834 278.908,266.943 277.744,268.725 C278.596,275.311 278.814,281.178 278.814,285.889 C278.814,289.037 278.721,291.686 278.658,293.615 L278.736,294.045 C282.041,313.279 287.971,329.42 287.986,351.217 C288.01,353.795 287.908,356.459 287.744,359.225 C286.291,383.037 266.83,394.31 248.111,393.951 C241.549,393.951 234.924,392.756 228.721,390.475 C223.33,388.693 221.393,383.389 220.822,380.67 C220.127,378.389 219.572,376.311 217.752,373.631 C214.361,375.42 215.111,375.373 212.502,376.475 C210.15,376.896 210.611,376.607 207.846,376.998 C208.861,382.381 210.166,386.764 210.252,391.373 C210.713,396.889 206.361,402.818 199.799,404.623 C189.986,408.014 172.971,415.56 158.486,415.67 L158.361,415.67 C152.096,415.67 145.588,414.06 141.174,408.873" fill="#6C4A2C"/>
    <path d="M235.541,195.725 C237.674,200.631 246.049,201.709 254.189,198.123 C262.338,194.537 267.197,187.654 265.041,182.756 C262.885,177.85 254.533,176.779 246.377,180.365 C238.236,183.951 233.377,190.826 235.541,195.725" fill="#D56263"/>
    <path d="M84.658,223.561 C85.689,228.826 93.588,231.709 102.338,230.006 C111.08,228.303 117.33,222.662 116.299,217.404 C115.275,212.154 107.377,209.264 98.627,210.967 C89.885,212.67 83.635,218.303 84.658,223.561" fill="#D56263"/>
    <path d="M139.408,221.021 C144.572,236.357 165.01,239.396 186.736,232.818 C208.471,226.225 223.283,212.529 218.111,197.193 C212.963,181.857 189.807,170.701 168.064,177.279 C146.338,183.857 134.26,205.685 139.408,221.021" fill="#F7CEB6"/>
    <path d="M166.283,231.092 C172.025,231.092 178.533,230.045 185.275,228.029 C203.291,222.67 214.533,212.154 214.111,203.318 C214.111,201.873 213.869,200.342 213.361,198.771 C210.432,189.35 196.58,180.217 181.158,180.342 C177.299,180.342 173.346,180.889 169.518,182.061 C153.197,186.881 143.08,201.912 143.205,213.521 C143.205,215.631 143.502,217.6 144.127,219.404 L139.393,221.014 L144.15,219.42 C146.658,226.982 154.221,230.959 166.283,231.092 M134.674,222.646 L134.658,222.654 C133.658,219.67 133.197,216.576 133.197,213.521 C133.346,196.662 146.182,178.795 166.596,172.49 C171.439,171.006 176.361,170.334 181.158,170.334 C200.127,170.459 217.51,180.514 222.853,195.631 C223.666,198.17 224.135,200.74 224.103,203.318 C223.689,220.053 207.728,231.545 188.166,237.6 C180.627,239.865 173.213,241.076 166.283,241.076 C166.127,241.076 165.971,241.076 165.814,241.076 C151.994,241.076 139.057,235.56 134.674,222.646" fill="#6C4A2C"/>
    <path d="M217.385,86.568 C222.658,98.584 236.705,104.045 248.705,98.771 C260.721,93.475 266.182,79.459 260.877,67.443 C255.611,55.42 241.604,49.959 229.572,55.248 C217.564,60.529 212.104,74.561 217.385,86.568" fill="#F5EDAE"/>
    <path d="M30.877,144.631 C36.174,156.646 50.174,162.107 62.205,156.826 C74.221,151.537 79.682,137.514 74.409,125.498 C69.104,113.49 55.088,108.021 43.08,113.303 C31.049,118.592 25.596,132.607 30.877,144.631" fill="#F5EDAE"/>
    <path d="M171.768,219.318 C173.283,219.248 174.893,219.068 176.627,218.756 C185.361,217.178 190.111,213.904 192.666,210.498 C195.205,207.107 195.385,203.693 195.33,202.35 C195.322,202.014 195.275,201.795 195.283,201.725 C195.143,200.779 194.361,200.139 193.549,200.295 C192.736,200.451 192.197,201.35 192.338,202.295 C192.338,202.295 192.346,202.303 192.361,202.49 C192.385,203.232 192.346,205.592 190.4,208.217 C188.455,210.826 184.439,213.818 176.143,215.326 C174.494,215.631 173.002,215.803 171.627,215.857 C160.377,216.295 157.854,210.107 157.299,208.865 C157.229,208.678 157.229,208.662 157.229,208.662 C156.986,207.74 156.135,207.217 155.354,207.498 C154.564,207.771 154.127,208.732 154.377,209.639 C154.416,210.076 157.619,219.967 171.557,219.342 L171.768,219.318" fill="#CB5A69"/>
    <path d="M105.252,143.795 C104.393,144.084 103.479,144.475 102.518,144.943 C97.674,147.342 95.463,150.045 94.533,152.467 C93.611,154.889 94.08,156.92 94.338,157.686 C94.424,157.889 94.471,158.014 94.486,158.045 C94.729,158.576 95.299,158.818 95.736,158.592 C96.189,158.357 96.346,157.756 96.104,157.217 C96.104,157.217 96.088,157.209 96.057,157.107 C95.924,156.67 95.549,155.287 96.236,153.428 C96.939,151.568 98.791,149.139 103.377,146.865 C104.291,146.404 105.15,146.045 105.939,145.787 C112.439,143.631 114.971,146.826 115.502,147.467 C115.58,147.561 115.58,147.576 115.58,147.576 C115.869,148.076 116.471,148.232 116.877,147.936 C117.275,147.646 117.354,146.998 117.072,146.521 C116.986,146.264 113.432,141.021 105.385,143.748 L105.252,143.795" fill="#6C4A2C"/>
    <path d="M234.775,125.686 C233.9,125.436 232.932,125.232 231.877,125.076 C226.533,124.311 223.143,125.279 221.018,126.756 C218.908,128.225 218.119,130.162 217.908,130.943 C217.854,131.154 217.822,131.287 217.822,131.318 C217.721,131.889 218.049,132.412 218.557,132.475 C219.049,132.545 219.525,132.139 219.627,131.553 C219.627,131.553 219.627,131.545 219.658,131.436 C219.783,131.006 220.252,129.639 221.877,128.514 C223.502,127.373 226.408,126.428 231.494,127.154 C232.502,127.287 233.393,127.482 234.213,127.717 C240.791,129.631 241.033,133.693 241.143,134.514 C241.135,134.639 241.135,134.646 241.135,134.646 C241.096,135.232 241.486,135.686 241.994,135.678 C242.486,135.678 242.932,135.201 242.971,134.615 C243.018,134.373 243.08,128.029 234.908,125.725 L234.775,125.686" fill="#6C4A2C"/>
    <path d="M222.611,173.803 C225.041,179.326 231.486,181.834 237.018,179.404 C242.533,176.975 245.049,170.537 242.611,165.006 C240.189,159.475 233.744,156.975 228.213,159.396 C222.697,161.834 220.189,168.279 222.611,173.803" fill="#6C4A2C"/>
    <path d="M116.471,184.584 L124.252,172.115 L124.939,188.631 L116.471,184.584" fill="#6C4A2C"/>
    <path d="M232.189,167.482 L239.971,155.006 L240.666,171.529 L232.189,167.482" fill="#6C4A2C"/>
    <path d="M107.893,197.975 C110.322,203.506 116.768,206.014 122.299,203.584 C127.822,201.154 130.33,194.709 127.892,189.178 C125.463,183.654 119.025,181.154 113.518,183.576 C107.978,186.006 105.463,192.451 107.893,197.975" fill="#6C4A2C"/>
    <path d="M234.867,169.45 C233.56,169.45 232.304,168.685 231.736,167.404 C230.971,165.678 231.768,163.67 233.502,162.896 C233.942,162.701 234.402,162.608 234.857,162.608 C234.978,162.608 235.098,162.615 235.217,162.628 L232.189,167.482 L235.939,169.272 C235.586,169.393 235.225,169.45 234.867,169.45" fill="#FFFFFE"/>
    <path d="M235.939,169.272 L232.189,167.482 L235.217,162.628 C236.391,162.754 237.473,163.492 237.978,164.654 C238.744,166.389 237.963,168.396 236.221,169.162 C236.128,169.203 236.034,169.24 235.939,169.272" fill="#FFFFFE"/>
    <path d="M160.393,184.381 C162.275,189.912 170.166,192.428 177.979,190.021 C185.783,187.607 190.564,181.17 188.689,175.646 C186.783,170.107 178.916,167.592 171.111,170.006 C163.314,172.428 158.518,178.857 160.393,184.381" fill="#6C4A2C"/>
    <path d="M178.975,175.957 C176.987,175.957 175.369,174.914 175.252,173.514 C175.158,172.014 176.814,170.67 178.979,170.521 C179.117,170.512 179.254,170.507 179.389,170.507 C181.368,170.507 182.97,171.554 183.08,172.951 C183.174,174.451 181.502,175.787 179.369,175.943 C179.236,175.952 179.105,175.957 178.975,175.957" fill="#C6B9A6"/>
    <path d="M118.638,193.236 C117.329,193.236 116.074,192.475 115.518,191.193 C114.752,189.475 115.533,187.451 117.268,186.701 C117.714,186.502 118.18,186.408 118.639,186.408 C119.948,186.408 121.199,187.173 121.76,188.451 C122.518,190.178 121.729,192.186 119.994,192.951 C119.553,193.144 119.092,193.236 118.638,193.236" fill="#FFFFFE"/>
    <path d="M491.291,341.287 C488.135,350.537 478.088,355.482 468.846,352.326 C459.596,349.17 454.658,339.123 457.814,329.873 C460.971,320.639 471.018,315.693 480.275,318.85 C489.502,321.99 494.455,332.045 491.291,341.287 z" fill="url(#Gradient_3)"/>
    <path d="M462.51,331.561 C462.041,332.842 461.838,334.201 461.838,335.568 C461.838,340.842 465.158,345.779 470.471,347.592 C471.783,348.053 473.189,348.264 474.549,348.264 C479.799,348.264 484.752,344.951 486.533,339.686 C487.018,338.248 487.221,336.857 487.221,335.553 C487.221,330.295 483.9,325.357 478.627,323.576 C477.26,323.092 475.908,322.881 474.549,322.881 C469.283,322.881 464.314,326.201 462.51,331.561 z M467.221,357.045 C457.783,353.834 451.838,345.029 451.838,335.568 C451.838,333.178 452.205,330.654 453.08,328.264 C456.291,318.85 465.072,312.881 474.549,312.881 C476.947,312.881 479.447,313.279 481.877,314.123 C491.291,317.334 497.236,326.115 497.221,335.553 C497.236,338.029 496.814,340.467 496.018,342.842 L491.291,341.287 L496.018,342.904 C492.783,352.318 483.986,358.264 474.549,358.264 C472.096,358.264 469.627,357.865 467.221,357.045" fill="#6C4A2C"/>
    <path d="M430.411,405.157 C417.132,405.157 400.523,399.736 390.4,397.1 C377.486,393.724 382.861,385.225 383.588,368.404 C379.276,367.982 376.974,367.893 375.679,367.893 C375.201,367.893 374.86,367.905 374.606,367.917 C374.352,367.929 374.184,367.942 374.053,367.942 C373.267,367.942 373.776,367.505 364.775,364.021 C356.213,375.264 361.26,381.623 354.338,384.881 C347.14,388.269 339.103,390.119 331.327,390.119 C327.545,390.119 323.823,389.681 320.29,388.769 C347.122,367.39 395.752,323.498 396.572,282.209 C396.682,267.029 389.189,252.264 372.361,241.045 C365.183,236.189 357.526,234.107 350.196,234.107 C350.155,234.107 350.113,234.107 350.072,234.107 C329.372,234.465 311.284,248.914 301.026,259.021 C303.035,244.318 307.024,226.931 314.377,210.935 C257.619,160.717 296.455,103.318 299.892,96.935 C295.34,95.68 291.289,93.936 287.72,91.798 C284.453,89.841 281.591,87.557 279.124,85.02 C269.729,75.356 266.058,62.036 267.499,49.278 C267.912,45.626 268.744,42.018 269.978,38.558 C275.698,22.528 290.082,9.607 311.693,9.607 C314.523,9.607 317.482,9.829 320.557,10.295 C345.307,14.029 363.627,31.857 366.299,51.873 C376.13,49.709 386.56,48.564 397.355,48.564 C405.657,48.564 414.176,49.241 422.799,50.654 C443.197,54.021 461.713,61.1 477.252,70.709 C485.872,59.791 500.684,51.165 516.786,51.165 C520.94,51.165 525.183,51.74 529.424,52.998 C598.599,73.478 562.698,142.596 530.899,142.591 C529,142.591 527.113,142.344 525.268,141.826 C525.479,146.396 540.189,225.295 471.455,242.584 C483.166,287.232 481.291,308.826 468.322,331.592 C469.619,352.084 454.314,389.529 448.064,398.342 C444.477,403.394 437.987,405.157 430.411,405.157 z M383.976,149.562 C365.183,152.383 349.35,164.329 345.354,179.834 C344.807,181.873 344.564,183.99 344.58,186.006 C345.041,204.779 363.83,216.475 386.174,221.279 C392.283,222.584 398.33,223.256 404.064,223.256 C404.221,223.256 404.385,223.256 404.541,223.256 C421.893,223.256 437.861,216.475 441.861,200.537 L437.019,199.342 L441.885,200.475 C442.408,198.209 442.674,195.873 442.658,193.498 C442.5,175.4 427.845,156.614 405.767,150.697 C403.686,149.217 401.115,148.068 398.221,147.436 C396.624,147.087 395.042,146.921 393.513,146.921 C389.839,146.921 386.474,147.879 383.976,149.562 z M457.609,156.067 C452.701,156.067 448.127,159.157 446.455,164.06 C444.361,170.225 447.65,176.936 453.822,179.021 C455.081,179.452 456.363,179.656 457.624,179.656 C462.522,179.656 467.102,176.572 468.768,171.67 C470.877,165.498 467.58,158.803 461.416,156.701 C460.154,156.271 458.871,156.067 457.609,156.067 z M332.073,140.673 C327.152,140.673 322.559,143.762 320.893,148.662 C318.799,154.826 322.096,161.529 328.268,163.623 C329.528,164.053 330.81,164.258 332.071,164.258 C336.97,164.258 341.543,161.174 343.221,156.271 C345.307,150.1 342.033,143.404 335.877,141.303 C334.616,140.876 333.334,140.673 332.073,140.673 z" fill="url(#Gradient_4)"/>
    <path d="M389.135,401.943 C380.947,400.49 376.174,393.256 376.846,387.006 C376.885,382.693 377.729,378.256 378.244,372.967 C377.018,372.889 376.189,372.873 375.658,372.873 C374.814,372.873 374.963,372.896 374.033,372.92 C369.932,372.201 371.486,372.107 366.705,370.115 C364.807,373.365 364.369,375.803 363.83,378.404 C363.432,381.412 361.947,387.068 356.447,389.404 C348.564,393.084 339.877,395.107 331.299,395.107 C312.877,395.42 294.057,384.732 290.689,361.561 C289.596,354.576 289.174,348.1 289.174,341.959 C289.189,323.686 292.83,308.396 294.346,290.748 L294.416,289.967 C294.283,288.139 294.221,285.975 294.205,283.451 C294.236,267.936 296.939,238.936 308.33,212.217 C285.9,191.271 278.643,168.506 278.705,148.904 C278.682,126.85 287.611,108.521 292.51,99.732 C271.994,91.545 262.018,72.85 262.15,54.639 C262.205,29.951 280.127,4.646 311.682,4.592 C314.768,4.592 317.986,4.842 321.291,5.342 C345.869,9.084 364.932,25.662 370.221,45.975 C378.893,44.381 387.979,43.561 397.314,43.561 C405.893,43.561 414.689,44.248 423.604,45.725 C443.057,48.936 460.869,55.42 476.182,64.264 C485.9,53.873 500.533,46.201 516.768,46.17 C521.377,46.17 526.127,46.795 530.846,48.201 L528.002,57.795 C524.213,56.678 520.455,56.154 516.768,56.154 C502.471,56.092 488.838,63.998 481.166,73.795 L478.393,77.311 L474.604,74.951 C459.65,65.701 441.752,58.85 421.986,55.584 C413.611,54.217 405.346,53.545 397.314,53.545 C386.885,53.545 376.807,54.662 367.361,56.74 L362.041,57.92 L361.33,52.514 C359.104,35.146 342.611,18.654 319.799,15.232 C316.939,14.787 314.236,14.576 311.682,14.6 C286.088,14.639 272.346,34.365 272.158,54.639 C272.283,70.896 281.018,86.436 301.221,92.115 L307.275,93.779 L304.283,99.311 C301.986,103.436 288.736,123.498 288.713,148.904 C288.799,166.795 295.08,187.131 317.689,207.178 L320.455,209.639 L318.908,213.021 C307.158,238.514 304.189,268.459 304.213,283.451 C304.213,286.607 304.338,289.131 304.525,290.584 L305.244,296.451 L303.838,296.389 C302.072,312.764 299.158,326.584 299.182,341.959 C299.182,347.662 299.564,353.592 300.58,360.029 C303.533,378.053 316.01,384.795 331.299,385.115 C338.283,385.115 345.643,383.436 352.197,380.357 C353.635,379.436 353.064,380.279 354.033,376.475 C354.689,373.021 355.9,367.303 360.783,360.998 L363.057,358.006 L366.564,359.357 C371.252,361.139 373.752,362.318 374.877,362.881 C375.088,362.873 375.354,362.865 375.658,362.865 C377.174,362.865 379.627,362.967 384.08,363.436 L388.768,363.896 L388.564,368.607 C388.189,376.998 386.783,383.389 386.838,387.006 C387.494,390.943 386.143,390.123 391.65,392.264 C401.963,394.982 418.361,400.193 430.393,400.154 C437.338,400.154 441.893,398.467 443.986,395.443 C449.135,388.561 463.643,352.936 463.369,334.139 C463.369,333.357 463.354,332.561 463.314,331.764 L463.268,330.35 L463.986,329.107 C470.775,317.107 474.182,306.084 474.221,291.006 C474.221,278.717 471.807,263.686 466.611,243.85 L465.322,238.951 L470.229,237.732 C514.939,226.459 521.479,188.014 521.713,162.693 C521.689,151.592 520.385,144.396 520.252,141.959 L520.049,135.186 L526.611,137.014 C528.002,137.396 529.408,137.584 530.877,137.584 C537.9,137.67 546.447,132.85 553.002,124.881 C559.596,116.998 564.049,106.295 564.025,95.982 C563.814,81.076 555.697,66.248 528.002,57.795 L530.846,48.201 C561.4,56.975 574.252,76.678 574.018,95.982 C573.658,122.029 553.369,146.936 530.924,147.576 C531.314,151.389 531.713,156.74 531.705,162.693 C531.947,188.256 524.26,231.67 477.502,246.076 C481.986,264.107 484.213,278.482 484.229,291.006 C484.252,307.131 480.393,320.139 473.354,332.811 C473.361,333.232 473.369,333.678 473.377,334.139 C473.088,357.139 458.979,391.193 452.119,401.248 C446.986,408.287 438.58,410.139 430.393,410.139 C415.861,410.1 399.064,404.482 389.135,401.943" fill="#6C4A2C"/>
    <path d="M331.346,181.037 C329.486,186.506 320.619,188.428 311.518,185.326 C302.432,182.232 296.564,175.279 298.432,169.811 C300.299,164.334 309.182,162.42 318.275,165.514 C327.354,168.615 333.221,175.561 331.346,181.037" fill="#EBA9A7"/>
    <path d="M496.104,197.029 C495.51,202.779 487.26,206.615 477.697,205.584 C468.158,204.561 460.9,199.068 461.533,193.334 C462.15,187.584 470.393,183.756 479.939,184.771 C489.486,185.803 496.721,191.295 496.104,197.029" fill="#EBA9A7"/>
    <path d="M437.018,199.35 C432.877,216.311 411.205,221.482 387.221,216.404 C363.244,211.31 346.08,197.967 350.221,181.006 C354.314,164.045 378.197,149.912 402.189,154.982 C426.158,160.045 441.142,182.389 437.018,199.35" fill="#F7CEB6"/>
    <path d="M355.033,182.287 C354.721,183.506 354.572,184.748 354.572,186.006 C354.096,196.334 367.439,207.17 388.236,211.498 C393.752,212.654 399.111,213.264 404.064,213.264 C419.768,213.115 429.916,207.74 432.143,198.162 L432.15,198.17 C432.502,196.654 432.666,195.1 432.666,193.498 C432.854,180.529 420.236,163.771 401.143,159.865 C398.096,159.217 395.096,158.92 392.119,158.92 C392.002,158.92 391.893,158.912 391.783,158.912 C373.635,158.92 357.541,170.771 355.033,182.287 M404.064,223.256 C398.33,223.256 392.283,222.584 386.174,221.279 C363.83,216.475 345.041,204.779 344.58,186.006 C344.564,183.99 344.807,181.873 345.354,179.834 C349.916,162.131 369.908,149.068 392.119,148.928 C395.752,148.928 399.463,149.279 403.205,150.076 C426.705,155.178 442.494,174.709 442.658,193.498 C442.674,195.873 442.408,198.209 441.885,200.475 L437.018,199.342 L441.861,200.537 C437.861,216.475 421.893,223.256 404.541,223.256 C404.385,223.256 404.221,223.256 404.064,223.256" fill="#6C4A2C"/>
    <path d="M340.783,62.014 C336.213,75.42 321.635,82.584 308.236,78.014 C294.83,73.443 287.658,58.873 292.229,45.467 C296.807,32.053 311.377,24.889 324.799,29.459 C338.197,34.037 345.354,48.607 340.783,62.014" fill="#DEB08F"/>
    <path d="M551.33,107.631 C546.768,121.037 532.189,128.201 518.783,123.631 C505.377,119.061 498.213,104.482 502.799,91.076 C507.361,77.67 521.939,70.514 535.346,75.084 C548.744,79.654 555.9,94.225 551.33,107.631" fill="#DEB08F"/>
    <path d="M402.064,200.514 C400.455,200.576 398.713,200.529 396.799,200.35 C387.275,199.459 381.861,196.389 378.799,192.959 C375.752,189.545 375.236,185.889 375.174,184.436 C375.166,184.068 375.174,183.834 375.174,183.771 C375.252,182.732 376.025,181.975 376.916,182.061 C377.799,182.154 378.455,183.068 378.377,184.1 C378.393,184.092 378.369,184.107 378.377,184.311 C378.439,185.123 378.689,187.662 381.018,190.287 C383.346,192.912 387.955,195.764 397.018,196.623 C398.799,196.795 400.424,196.842 401.908,196.764 C414.049,196.193 416.189,189.326 416.674,187.928 C416.729,187.732 416.721,187.709 416.721,187.709 C416.893,186.693 417.768,186.061 418.627,186.279 C419.494,186.506 420.049,187.498 419.861,188.498 C419.877,188.975 417.338,199.904 402.299,200.498 L402.064,200.514" fill="#CB5A69"/>
    <path d="M466.604,113.17 C467.564,113.404 468.564,113.732 469.658,114.154 C475.072,116.295 477.729,118.99 478.924,121.514 C480.143,124.021 479.838,126.256 479.619,127.107 C479.549,127.326 479.518,127.467 479.502,127.506 C479.291,128.092 478.705,128.404 478.205,128.201 C477.697,127.998 477.463,127.357 477.674,126.764 C477.674,126.764 477.689,126.764 477.721,126.639 C477.822,126.154 478.119,124.639 477.197,122.701 C476.268,120.764 474.057,118.326 468.9,116.303 C467.877,115.896 466.947,115.6 466.057,115.389 C458.861,113.67 456.471,117.334 455.939,118.068 C455.869,118.186 455.869,118.193 455.869,118.193 C455.588,118.756 454.971,118.982 454.502,118.693 C454.033,118.42 453.877,117.756 454.15,117.193 C454.236,116.928 457.564,110.959 466.447,113.139 L466.604,113.17" fill="#6C4A2C"/>
    <path d="M325.697,105.662 C326.627,105.311 327.65,105.006 328.768,104.748 C334.447,103.436 338.158,104.154 340.58,105.545 C343.002,106.936 344.018,108.936 344.314,109.771 C344.393,109.975 344.416,110.107 344.424,110.162 C344.596,110.764 344.314,111.357 343.768,111.467 C343.236,111.584 342.697,111.186 342.518,110.584 C342.518,110.584 342.518,110.568 342.486,110.451 C342.299,110.006 341.658,108.584 339.83,107.514 C337.963,106.443 334.76,105.693 329.361,106.943 C328.299,107.186 327.346,107.467 326.502,107.795 C319.604,110.467 319.697,114.85 319.674,115.748 C319.697,115.881 319.689,115.889 319.689,115.889 C319.768,116.506 319.408,117.037 318.869,117.084 C318.322,117.115 317.807,116.646 317.729,116.029 C317.643,115.764 316.971,108.967 325.549,105.717 L325.697,105.662" fill="#6C4A2C"/>
    <path d="M343.221,156.271 C341.111,162.435 334.424,165.725 328.268,163.623 C322.096,161.529 318.799,154.826 320.893,148.662 C322.986,142.506 329.697,139.209 335.877,141.303 C342.033,143.404 345.307,150.1 343.221,156.271" fill="#6C4A2C"/>
    <path d="M468.768,171.67 C466.674,177.834 459.971,181.123 453.822,179.021 C447.65,176.936 444.361,170.225 446.455,164.06 C448.557,157.896 455.244,154.599 461.416,156.701 C467.58,158.803 470.877,165.498 468.768,171.67" fill="#6C4A2C"/>
    <path d="M329.332,152.728 C328.937,152.728 328.537,152.664 328.143,152.529 C326.236,151.881 325.174,149.787 325.846,147.85 C326.368,146.325 327.803,145.356 329.336,145.356 C329.728,145.356 330.126,145.419 330.518,145.553 C332.439,146.217 333.471,148.311 332.814,150.232 C332.287,151.766 330.86,152.728 329.332,152.728" fill="#FFFFFE"/>
    <path d="M411.064,161.904 C409.549,168.021 401.33,171.451 392.689,169.584 C384.072,167.701 378.346,161.232 379.861,155.123 C381.377,148.998 389.603,145.553 398.221,147.436 C406.838,149.318 412.596,155.787 411.064,161.904" fill="#6C4A2C"/>
    <path d="M389.813,154.577 C387.524,154.577 385.673,153.302 385.643,151.709 C385.619,150.092 387.494,148.748 389.83,148.717 C389.864,148.716 389.899,148.716 389.933,148.716 C392.214,148.716 394.065,149.991 394.096,151.584 C394.104,153.193 392.252,154.545 389.916,154.576 C389.881,154.577 389.847,154.577 389.813,154.577" fill="#C6B9A6"/>
    <path d="M456.473,167.579 C456.078,167.579 455.677,167.515 455.283,167.381 C453.369,166.724 452.33,164.631 452.986,162.701 C453.527,161.172 454.953,160.207 456.482,160.207 C456.874,160.207 457.273,160.27 457.666,160.404 C459.58,161.06 460.619,163.154 459.963,165.076 C459.441,166.617 458.006,167.579 456.473,167.579" fill="#FFFFFE"/>
    <path d="M299.986,391.826 C292.658,386.92 272.236,372.795 251.838,354.631 C226.236,332.107 201.518,302.686 201.916,280.42 C201.939,273.982 203.713,268.123 208.018,262.42 C220.385,246.256 231.893,241.428 242.377,241.365 L242.572,241.365 C255.267,241.365 267.729,249.318 276.939,257.779 C286.169,266.174 291.789,274.592 291.861,274.592 L295.658,280.256 L299.916,274.904 C299.932,274.881 306.103,267.139 315.697,259.326 C325.175,251.516 337.863,244.114 349.81,244.114 C349.897,244.114 349.986,244.114 350.072,244.115 C355.658,244.115 361.135,245.568 366.76,249.342 C381.471,259.396 386.471,270.225 386.564,282.209 C386.861,305.264 364.994,333.982 342.346,355.99 C324.494,373.482 306.643,386.951 299.986,391.826 z M246.703,256.986 C242.776,256.986 238.507,258.126 234.541,260.475 C225.221,266.021 221.096,276.201 225.361,283.217 C227.837,287.275 232.556,289.389 237.904,289.389 C241.822,289.389 246.076,288.255 250.033,285.92 C259.377,280.373 263.517,270.178 259.228,263.154 C256.769,259.1 252.052,256.986 246.703,256.986 z" fill="url(#Gradient_5)"/>
    <path d="M242.377,241.365 C231.893,241.428 220.385,246.256 208.018,262.42 C203.713,268.123 201.939,273.982 201.916,280.42 C201.518,302.686 226.236,332.107 251.838,354.631 C272.236,372.795 292.658,386.92 299.986,391.826 C306.643,386.951 324.494,373.482 342.346,355.99 C364.994,333.982 386.861,305.264 386.564,282.209 C386.471,270.225 381.471,259.396 366.76,249.342 C361.135,245.568 355.658,244.115 350.072,244.115 C338.049,244.006 325.244,251.459 315.697,259.326 C306.103,267.139 299.932,274.881 299.916,274.904 L295.658,280.256 L291.861,274.592 C291.814,274.631 286.189,266.193 276.939,257.779 C267.729,249.318 255.267,241.365 242.572,241.365 L242.377,241.365 M300.111,397.896 L302.814,393.701 L300.111,397.896 M297.424,402.115 C297.268,402.014 271.33,385.373 245.189,362.099 C219.205,338.678 192.314,309.357 191.893,280.42 C191.893,272.053 194.416,263.717 200.064,256.373 C213.502,238.514 228.4,231.295 242.377,231.357 C268.299,231.826 288.252,253.771 296.291,263.936 C304.877,254.553 325.658,234.529 350.072,234.107 C357.44,234.084 365.143,236.162 372.361,241.045 C389.189,252.264 396.682,267.029 396.572,282.209 C395.439,339.248 303.064,401.256 302.963,402.014 L300.205,403.928 L297.424,402.115" fill="#6C4A2C"/>
    <path d="M237.904,289.389 C232.556,289.389 227.837,287.275 225.361,283.217 C221.096,276.201 225.221,266.021 234.541,260.475 C238.507,258.126 242.776,256.986 246.703,256.986 C252.052,256.986 256.769,259.1 259.228,263.154 C263.517,270.178 259.377,280.373 250.033,285.92 C246.076,288.255 241.822,289.389 237.904,289.389 z" fill="url(#Gradient_6)"/>
    <path d="M457.174,279.975 C465.205,259.756 426.916,260.123 418.096,261.428 C393.236,265.053 378.752,284.662 376.596,290.404 C371.111,304.928 394.682,313.146 407.346,311.709 C424.807,309.74 449.08,300.186 457.174,279.975 z" fill="url(#Gradient_7)"/>
    <path d="M427.049,265.896 C423.439,265.896 420.307,266.123 418.814,266.381 C396.408,269.303 382.432,288.412 381.26,292.17 C380.877,293.154 380.752,293.959 380.752,294.607 C380.627,297.146 382.979,300.279 387.979,302.889 C392.775,305.404 399.369,306.873 404.283,306.857 C405.158,306.857 406.025,306.811 406.783,306.725 C423.174,305.006 445.822,295.545 452.51,278.146 L452.502,278.146 C453.064,276.717 453.236,275.623 453.236,274.779 C453.322,272.365 451.408,270.287 445.744,268.311 C440.471,266.561 433.135,265.896 427.33,265.896 C427.229,265.896 427.143,265.896 427.049,265.896 z M370.768,294.607 C370.744,292.592 371.166,290.576 371.893,288.639 C375.041,280.912 390.041,260.795 417.33,256.49 C419.596,256.131 422.971,255.896 427.049,255.896 C433.604,255.896 441.729,256.49 448.869,258.795 C455.697,260.896 463.158,265.771 463.236,274.779 C463.252,277.068 462.752,279.42 461.807,281.818 C452.299,304.842 426.416,314.475 407.83,316.686 C406.689,316.787 405.518,316.85 404.283,316.85 C391.518,316.412 372.15,311.248 370.768,294.607" fill="#6C4A2C"/>
    <path d="M139.377,294.67 C137.104,276.271 179.346,276.529 188.682,277.678 C215.002,280.928 224.611,298.748 225.127,303.959 C226.424,317.17 197.658,324.717 184.111,323.436 C165.432,321.686 141.682,313.045 139.377,294.67 z" fill="url(#Gradient_8)"/>
    <path d="M184.525,318.443 C185.314,318.521 186.26,318.545 187.283,318.545 C193.51,318.592 202.596,316.896 209.549,313.959 C216.838,311.045 220.549,306.842 220.15,304.811 C220.15,304.639 220.15,304.475 220.15,304.451 C220.221,302.373 212.111,285.287 188.041,282.623 C186.408,282.42 183.135,282.209 179.205,282.209 C171.971,282.209 162.275,282.896 154.971,285.037 C147.283,287.295 143.994,290.373 144.252,293.248 C144.252,293.436 144.268,293.67 144.307,293.959 L139.369,294.67 L144.33,294.045 C145.33,307.889 166.557,316.975 184.525,318.443 z M183.643,328.412 C164.291,326.404 138.01,318.193 134.408,295.279 L134.416,295.279 C134.314,294.631 134.26,293.967 134.26,293.248 C134.502,282.771 143.682,277.834 152.189,275.42 C161.088,272.865 171.346,272.217 179.205,272.217 C183.502,272.217 186.971,272.404 189.283,272.701 C217.885,276.553 229.002,295.107 230.096,303.615 C230.143,304.014 230.158,304.404 230.143,304.811 C229.768,314.506 221.557,319.654 213.408,323.201 C204.939,326.693 195.119,328.537 187.283,328.561 C186.057,328.561 184.814,328.514 183.643,328.412" fill="#6C4A2C"/>
  </g>
</svg>
