<?xml version="1.0" encoding="UTF-8"?>
<!DOCTYPE svg PUBLIC "-//W3C//DTD SVG 1.1//EN" "http://www.w3.org/Graphics/SVG/1.1/DTD/svg11.dtd">
<svg version="1.1" xmlns="http://www.w3.org/2000/svg" xmlns:xlink="http://www.w3.org/1999/xlink" x="0" y="0" width="526" height="450" viewBox="0, 0, 526, 450">
  <g id="Layer_1">
    <path d="M376.465,65.833 C376.465,65.833 408.851,85.683 417.549,108.33 C417.549,108.33 448.55,152.55 446.454,178.664 C446.454,178.664 478.847,230.906 477.476,251.81 C477.476,251.81 505.306,301.95 501.136,322.847 C501.136,322.847 517.843,354.895 513.666,379.969 L521.682,412.685 L472.582,433.596 L455.151,403.657 C455.151,403.657 430.071,389.714 424.53,352.097 C424.53,352.097 404.675,325.969 405.012,289.42 L392.3,256.43 C398.733,228.888 387.996,191.165 387.996,191.165 C366.551,153.633 375.038,70.607 375.537,65.791 L376.465,65.833" fill="#E8E654"/>
    <path d="M150.741,65.868 C151.331,71.388 159.601,153.794 138.288,191.165 C138.288,191.165 127.257,229.767 134.189,257.399 C134.189,257.399 133.521,259.284 132.601,262.455 L132.558,262.589 L122.243,289.42 C122.573,325.969 102.725,352.097 102.725,352.097 C97.17,389.714 72.097,403.657 72.097,403.657 L54.666,433.596 L5.567,412.685 L13.582,379.969 C9.406,354.895 26.119,322.847 26.119,322.847 C21.95,301.95 49.773,251.81 49.773,251.81 C48.402,230.906 80.787,178.664 80.787,178.664 C78.698,152.55 109.706,108.33 109.706,108.33 C118.264,86.013 149.784,66.459 150.741,65.868" fill="#E8E654"/>
    <path d="M392.3,256.43 C392.257,256.767 392.173,257.056 392.089,257.399 C392.089,257.399 407.29,301.542 396.223,323.592 C396.223,323.592 404.499,374.681 390.718,391.212 L385.24,440.908 C385.24,440.908 322.472,445.05 263.121,445.05 C203.806,445.05 141.045,440.908 141.045,440.908 L135.574,391.212 C121.737,374.681 130.048,323.592 130.048,323.592 C121.28,306.126 128.972,274.872 132.558,262.589 L132.601,262.455 C133.521,259.284 134.189,257.399 134.189,257.399 C127.257,229.767 138.288,191.165 138.288,191.165 C159.601,153.794 151.331,71.388 150.741,65.868 C150.698,65.657 150.698,65.58 150.698,65.58 C160.353,57.305 203.103,42.131 203.103,42.131 C203.103,42.131 212.757,11.791 214.142,7.658 C215.526,3.509 263.121,5.224 263.121,5.224 C263.121,5.224 310.751,3.509 312.144,7.658 C313.521,11.791 323.175,42.131 323.175,42.131 C323.175,42.131 365.925,57.305 375.572,65.58 C375.572,65.58 375.572,65.657 375.537,65.791 C375.038,70.607 366.551,153.633 387.996,191.165 C387.996,191.165 398.733,228.888 392.3,256.43" fill="#E8E654"/>
    <path d="M303.847,10.407 C303.847,10.407 272.121,20.06 269.351,29.714 C266.581,39.375 263.36,67.9 263.36,67.9 M263.143,5.245 C263.143,5.245 310.737,3.509 312.129,7.643 C313.507,11.791 323.168,42.145 323.168,42.145 C323.168,42.145 365.939,57.318 375.593,65.595 C375.593,65.595 365.933,152.521 388.011,191.151 C388.011,191.151 399.007,229.781 392.103,257.386 C392.103,257.386 407.283,301.542 396.237,323.606 C396.237,323.606 404.526,374.667 390.738,391.212 L385.254,440.888 C385.254,440.888 322.472,445.036 263.143,445.036 M222.438,10.407 C222.438,10.407 254.163,20.06 256.934,29.714 C259.69,39.375 263.36,67.9 263.36,67.9 M263.143,5.245 C263.143,5.245 215.541,3.509 214.163,7.643 C212.777,11.791 203.116,42.145 203.116,42.145 C203.116,42.145 160.346,57.318 150.698,65.595 C150.698,65.595 160.346,152.521 138.274,191.151 C138.274,191.151 127.277,229.781 134.175,257.386 C134.175,257.386 118.987,301.542 130.041,323.606 C130.041,323.606 121.751,374.667 135.554,391.212 L141.03,440.888 C141.03,440.888 203.806,445.036 263.143,445.036 M321.783,42.145 C321.783,42.145 300.626,67.9 263.36,67.9 C226.116,67.9 204.502,39.375 204.502,39.375 M389.389,392.583 C389.389,392.583 334.193,398.109 263.831,398.109 C193.463,398.109 136.896,389.833 136.896,389.833 M264.323,67.936 L276.854,76.282 L276.854,445.099" fill-opacity="0" stroke="#1A1919" stroke-width="3.761" stroke-linecap="round" stroke-linejoin="round"/>
    <path d="M259.093,83.595 C259.093,86.477 261.44,88.818 264.323,88.818 C267.206,88.818 269.541,86.477 269.541,83.595 C269.541,80.719 267.206,78.384 264.323,78.384 C261.44,78.384 259.093,80.719 259.093,83.595" fill="#E26158"/>
    <path d="M259.093,83.595 C259.093,86.477 261.44,88.818 264.323,88.818 C267.206,88.818 269.541,86.477 269.541,83.595 C269.541,80.719 267.206,78.384 264.323,78.384 C261.44,78.384 259.093,80.719 259.093,83.595 z" fill-opacity="0" stroke="#1A1919" stroke-width="3.761" stroke-linecap="round" stroke-linejoin="round"/>
    <path d="M259.093,151.509 C259.093,154.406 261.44,156.74 264.323,156.74 C267.206,156.74 269.541,154.406 269.541,151.509 C269.541,148.626 267.206,146.292 264.323,146.292 C261.44,146.292 259.093,148.626 259.093,151.509" fill="#E26158"/>
    <path d="M259.093,151.509 C259.093,154.406 261.44,156.74 264.323,156.74 C267.206,156.74 269.541,154.406 269.541,151.509 C269.541,148.626 267.206,146.292 264.323,146.292 C261.44,146.292 259.093,148.626 259.093,151.509 z" fill-opacity="0" stroke="#1A1919" stroke-width="3.761" stroke-linecap="round" stroke-linejoin="round"/>
    <path d="M259.093,219.417 C259.093,222.313 261.44,224.648 264.323,224.648 C267.206,224.648 269.541,222.313 269.541,219.417 C269.541,216.541 267.206,214.2 264.323,214.2 C261.44,214.2 259.093,216.541 259.093,219.417" fill="#E26158"/>
    <path d="M259.093,219.417 C259.093,222.313 261.44,224.648 264.323,224.648 C267.206,224.648 269.541,222.313 269.541,219.417 C269.541,216.541 267.206,214.2 264.323,214.2 C261.44,214.2 259.093,216.541 259.093,219.417 z" fill-opacity="0" stroke="#1A1919" stroke-width="3.761" stroke-linecap="round" stroke-linejoin="round"/>
    <path d="M259.093,287.346 C259.093,290.222 261.44,292.556 264.323,292.556 C267.206,292.556 269.541,290.222 269.541,287.346 C269.541,284.463 267.206,282.107 264.323,282.107 C261.44,282.107 259.093,284.463 259.093,287.346" fill="#E26158"/>
    <path d="M259.093,287.346 C259.093,290.222 261.44,292.556 264.323,292.556 C267.206,292.556 269.541,290.222 269.541,287.346 C269.541,284.463 267.206,282.107 264.323,282.107 C261.44,282.107 259.093,284.463 259.093,287.346 z" fill-opacity="0" stroke="#1A1919" stroke-width="3.761" stroke-linecap="round" stroke-linejoin="round"/>
    <path d="M259.093,355.247 C259.093,358.13 261.44,360.471 264.323,360.471 C267.206,360.471 269.541,358.13 269.541,355.247 C269.541,352.364 267.206,350.016 264.323,350.016 C261.44,350.016 259.093,352.364 259.093,355.247" fill="#E26158"/>
    <path d="M259.093,355.247 C259.093,358.13 261.44,360.471 264.323,360.471 C267.206,360.471 269.541,358.13 269.541,355.247 C269.541,352.364 267.206,350.016 264.323,350.016 C261.44,350.016 259.093,352.364 259.093,355.247 z M376.465,65.833 C376.465,65.833 408.851,85.683 417.556,108.33 C417.556,108.33 448.55,152.55 446.454,178.664 C446.454,178.664 478.854,230.906 477.462,251.81 C477.462,251.81 505.319,301.95 501.15,322.853 C501.15,322.853 517.863,354.895 513.673,379.969 L521.682,412.706 L472.582,433.602 L455.173,403.649 C455.173,403.649 430.093,389.721 424.53,352.11 C424.53,352.11 404.675,325.989 405.019,289.42 L392.131,255.986 M511.233,379.266 L455.869,402.251 M150.79,65.833 C150.79,65.833 118.397,85.683 109.699,108.33 C109.699,108.33 78.698,152.55 80.787,178.664 C80.787,178.664 48.402,230.906 49.793,251.81 C49.793,251.81 21.936,301.95 26.113,322.853 C26.113,322.853 9.385,354.895 13.562,379.969 L5.567,412.706 L54.666,433.602 L72.089,403.649 C72.089,403.649 97.155,389.721 102.725,352.11 C102.725,352.11 122.573,325.989 122.236,289.42 L135.11,255.986 M16.015,379.266 L71.386,402.251" fill-opacity="0" stroke="#1A1919" stroke-width="3.761" stroke-linecap="round" stroke-linejoin="round"/>
    <path d="M392.103,257.386 L134.175,257.386 M385.205,184.261 L142.409,184.261 M374.215,111.136 L153.448,111.136 M396.237,323.606 L130.041,323.606 M254.916,68.97 L254.916,441.963 M417.204,107.627 L374.37,123.3 M445.421,178.664 L393.179,198.534 M474.671,251.81 L401.538,282.107 M498.696,321.813 L426.604,352.11 M110.037,107.627 L152.878,123.3 M81.827,178.664 L134.069,198.534 M52.577,251.81 L125.71,282.107 M28.545,321.813 L100.644,352.11" fill-opacity="0" stroke="#1A1919" stroke-width="1.672" stroke-dasharray="2.925,2.925" stroke-linecap="round" stroke-linejoin="round"/>
    <path d="M342.476,247.731 L359.034,247.731 L359.034,347.062 L342.476,347.062 z" fill="#E8E654"/>
    <path d="M342.476,347.062 L359.034,347.062 L359.034,247.731 L342.476,247.731 z" fill-opacity="0" stroke="#1A1919" stroke-width="3.761" stroke-linecap="round" stroke-linejoin="round"/>
    <path d="M171.694,247.731 L188.253,247.731 L188.253,347.062 L171.694,347.062 z" fill="#E8E654"/>
    <path d="M171.694,247.731 L188.253,247.731 L188.253,347.062 L171.694,347.062 z" fill-opacity="0" stroke="#1A1919" stroke-width="3.761" stroke-linecap="round" stroke-linejoin="round"/>
    <path d="M358.05,253.892 L348.221,253.892 L348.221,340.685 L357.206,340.685 M172.671,253.892 L182.515,253.892 L182.515,340.685 L173.529,340.685" fill-opacity="0" stroke="#1A1919" stroke-width="1.672" stroke-dasharray="2.925,2.925" stroke-linecap="round" stroke-linejoin="round"/>
  </g>
</svg>
